<svg xmlns="http://www.w3.org/2000/svg" data-name="Layer 1" viewBox="0 0 512 512" id="job-location"><ellipse cx="256" cy="427.6" fill="#ffe966" rx="128.4" ry="76.9"></ellipse><path fill="#f66" d="M256 7.5c-88.26 0-160.06 71.25-160.06 158.83C95.94 273.72 256 440.65 256 440.65s160.06-171.34 160.06-274.32C416.06 78.75 344.26 7.5 256 7.5Zm0 258.75c-56.66 0-102.59-45.58-102.59-101.8S199.34 62.66 256 62.66s102.59 45.58 102.59 101.79-45.93 101.8-102.59 101.8Z"></path><rect width="112.46" height="74.82" x="199.77" y="138.9" fill="#ffc166" rx="7.38"></rect><path fill="#ffb74e" d="M304.85 138.9h-30a7.38 7.38 0 0 1 7.38 7.38v60.06a7.38 7.38 0 0 1-7.38 7.38h30a7.38 7.38 0 0 0 7.38-7.38v-60.06a7.38 7.38 0 0 0-7.38-7.38Z"></path><path fill="#676e87" d="M281.77 161.4h-51.54a7.5 7.5 0 0 1-7.5-7.5v-31.32a15.67 15.67 0 0 1 15.65-15.65h35.24a15.67 15.67 0 0 1 15.65 15.65v31.32a7.5 7.5 0 0 1-7.5 7.5Zm-44-15h36.54v-23.82a.65.65 0 0 0-.65-.65h-35.28a.65.65 0 0 0-.65.65Z"></path><path fill="#ffae36" d="m312.23 161.35-51.35 22.35a12.18 12.18 0 0 1-9.76 0l-51.35-22.35v-15.07a7.38 7.38 0 0 1 7.38-7.38h97.7a7.38 7.38 0 0 1 7.38 7.38Z"></path><path fill="#ffa41f" d="M282.23 146.28v28.13l30-13.06v-15.07a7.4 7.4 0 0 0-1.26-4.13c-.13-.19-.28-.38-.43-.56a7.36 7.36 0 0 0-5.69-2.69h-30a7.38 7.38 0 0 1 7.38 7.38Z"></path><path fill="#272a33" d="M366.09 164.45c0-60.26-49.39-109.29-110.09-109.29s-110.09 49-110.09 109.29S195.3 273.75 256 273.75s110.09-49.03 110.09-109.3Zm-205.18 0c0-52 42.66-94.29 95.09-94.29s95.09 42.3 95.09 94.29-42.66 94.3-95.09 94.3-95.09-42.3-95.09-94.3Zm158.82 42.27v-60.06a14.9 14.9 0 0 0-14.88-14.88h-15.58V123a15.67 15.67 0 0 0-15.65-15.65h-35.24A15.67 15.67 0 0 0 222.73 123v8.82h-15.58a14.9 14.9 0 0 0-14.88 14.88v60.06a14.9 14.9 0 0 0 14.88 14.88h97.7a14.9 14.9 0 0 0 14.88-14.92Zm-14.88-.12ZM237.73 123a.65.65 0 0 1 .65-.65h35.24a.65.65 0 0 1 .65.65v8.82h-36.54Zm67 83.64h-97.46v-33.46L248.12 191a19.86 19.86 0 0 0 15.76 0l40.85-17.78Zm0-49.78-46.84 20.34a4.69 4.69 0 0 1-3.78 0l-46.84-20.38v-10h97.46Zm28.88 201.32c2.83-3.82 5.68-7.7 8.51-11.66 54-75.23 81.44-135.84 81.44-180.15C423.56 74.61 348.4 0 256 0S88.44 74.61 88.44 166.33c0 46.15 27.4 107.33 81.46 181.83q3.81 5.26 7.62 10.36c-36.15 15.69-57.42 41-57.42 69.08 0 23.28 14.65 44.88 41.25 60.81 25.4 15.21 59 23.59 94.65 23.59s69.25-8.38 94.65-23.59c26.6-15.93 41.25-37.53 41.25-60.81 0-28.31-21.59-53.8-58.29-69.46ZM103.44 166.33C103.44 82.89 171.88 15 256 15s152.56 67.89 152.56 151.33c0 88.29-124.86 232.32-152.63 263.25C228 399.22 103.44 258.43 103.44 166.33Zm239.5 309.21C319.84 489.38 289 497 256 497s-63.84-7.62-86.94-21.46c-21.9-13.11-34-30.14-34-47.94 0-22.29 19.71-43.72 51.8-56.75 33.59 43.49 63.34 74.63 63.69 75a7.47 7.47 0 0 0 5.41 2.31h.05a7.46 7.46 0 0 0 5.43-2.38c.34-.37 29.58-31.78 62.81-75.25 32.59 13 52.61 34.56 52.61 57.08.04 17.79-12.02 34.82-33.92 47.93Z"></path></svg>